<svg width="85" height="61" viewBox="0 0 85 61" fill="none" xmlns="http://www.w3.org/2000/svg">
<path d="M42 33.2445C43.7855 33.2445 45.2329 31.7971 45.2329 30.0116C45.2329 28.2261 43.7855 26.7787 42 26.7787C40.2145 26.7787 38.7671 28.2261 38.7671 30.0116C38.7671 31.7971 40.2145 33.2445 42 33.2445Z" stroke="#231C3B" stroke-linecap="round" stroke-linejoin="round"/>
<path d="M41.9999 48.0867C51.9825 48.0867 60.075 39.9942 60.075 30.0117C60.075 20.0291 51.9825 11.9366 41.9999 11.9366C32.0173 11.9366 23.9248 20.0291 23.9248 30.0117C23.9248 39.9942 32.0173 48.0867 41.9999 48.0867Z" stroke="#231C3B" stroke-linecap="round" stroke-linejoin="round"/>
<path d="M42 60.0234C61.1692 60.0234 84 42.4049 84 30.0117C84 17.6185 61.1692 0 42 0M42 60.0234C22.8308 60.0234 0 42.4049 0 30.0117C0 17.6185 22.8308 0 42 0" stroke="#231C3B" stroke-linecap="round" stroke-linejoin="round"/>
</svg>
